<?xml version="1.0" encoding="utf-8"?>
<!-- Generator: Adobe Illustrator 16.0.0, SVG Export Plug-In . SVG Version: 6.00 Build 0)  -->
<!DOCTYPE svg PUBLIC "-//W3C//DTD SVG 1.1//EN" "http://www.w3.org/Graphics/SVG/1.1/DTD/svg11.dtd">
<svg version="1.1" id="Layer_1" xmlns="http://www.w3.org/2000/svg" xmlns:xlink="http://www.w3.org/1999/xlink" x="0px" y="0px"
	 width="512px" height="512px" viewBox="0 0 512 512" enable-background="new 0 0 512 512" xml:space="preserve">
<path d="M-612,320v96h96v-96H-612z M-529,403h-70v-70h70V403z"/>
<path d="M115,131V6H82v125H49v98h33v277h33V229h32v-98H115z M127,209H68v-58h59V209z"/>
<path d="M274,303V6h-34v297h-33v98h33v105h34V401h31v-98H274z M285,381h-58v-59h58V381z"/>
<path d="M431,201V6h-33v195h-34v98h34v207h33V299h31v-98H431z M443,279h-59v-58h59V279z"/>
</svg>
